<svg width="72" height="94" viewBox="0 0 72 94" fill="none" xmlns="http://www.w3.org/2000/svg">
<path fill-rule="evenodd" clip-rule="evenodd" d="M55.9766 39.0459C57.0145 39.0459 57.8559 39.9122 57.8559 40.9809V90.1296H68.2411V67.6332C68.2411 66.5646 69.0825 65.6983 70.1204 65.6983C71.1583 65.6983 71.9997 66.5646 71.9997 67.6332V92.0646C71.9997 93.1332 71.1583 93.9996 70.1204 93.9996H15.9965C14.9586 93.9996 14.1172 93.1332 14.1172 92.0646V67.6332C14.1172 66.5646 14.9586 65.6983 15.9965 65.6983H37.3066C38.3445 65.6983 39.1859 66.5646 39.1859 67.6332C39.1859 68.7019 38.3445 69.5682 37.3066 69.5682H17.8758V90.1296H54.0972V40.9809C54.0972 39.9122 54.9386 39.0459 55.9766 39.0459Z" fill="url(#paint0_linear_2121_7937)"/>
<path fill-rule="evenodd" clip-rule="evenodd" d="M13.4122 19.2708C13.4122 18.2119 14.2327 17.3535 15.2448 17.3535H30.6384C31.3325 17.3535 31.9671 17.7638 32.2775 18.4133C32.5879 19.0629 32.5209 19.8401 32.1045 20.4211L16.7109 41.8941C16.1036 42.7412 14.9549 42.9129 14.1452 42.2776C13.3356 41.6423 13.1715 40.4405 13.7787 39.5934L26.9733 21.188H15.2448C14.2327 21.188 13.4122 20.3296 13.4122 19.2708Z" fill="#FF9900"/>
<path d="M60.7058 39.408C60.7058 42.0037 58.6516 44.108 56.1175 44.108C53.5835 44.108 51.5293 42.0037 51.5293 39.408C51.5293 36.8123 53.5835 34.708 56.1175 34.708C58.6516 34.708 60.7058 36.8123 60.7058 39.408Z" fill="white"/>
<path fill-rule="evenodd" clip-rule="evenodd" d="M56.1175 42.1496C57.5957 42.1496 58.794 40.9222 58.794 39.408C58.794 37.8938 57.5957 36.6663 56.1175 36.6663C54.6394 36.6663 53.4411 37.8938 53.4411 39.408C53.4411 40.9222 54.6394 42.1496 56.1175 42.1496ZM56.1175 44.108C58.6516 44.108 60.7058 42.0037 60.7058 39.408C60.7058 36.8123 58.6516 34.708 56.1175 34.708C53.5835 34.708 51.5293 36.8123 51.5293 39.408C51.5293 42.0037 53.5835 44.108 56.1175 44.108Z" fill="#FF9900"/>
<path fill-rule="evenodd" clip-rule="evenodd" d="M53.4503 1.07235C53.9136 2.0265 53.5314 3.18335 52.5967 3.65625C52.4955 3.70744 52.3176 3.77364 52.0754 3.86376C50.9636 4.27752 48.4967 5.1955 45.8777 7.47995C42.817 10.1497 39.7703 14.5982 39.8571 21.9743C40.0084 34.829 39.9203 48.6216 39.8573 53.9284V67.487C39.8573 68.5519 39.0115 69.4152 37.9683 69.4152C36.925 69.4152 36.0793 68.5519 36.0793 67.487V55.8448H1.88898C0.845726 55.8448 0 54.9815 0 53.9166C0 52.8517 0.845726 51.9884 1.88898 51.9884H36.0995C36.158 45.7704 36.2147 33.5152 36.0794 22.0207C35.9773 13.3417 39.6365 7.85133 43.4234 4.54819C47.0815 1.35734 51.1069 0.105919 50.919 0.20098C51.8537 -0.27192 52.9871 0.118207 53.4503 1.07235Z" fill="url(#paint1_linear_2121_7937)"/>
<defs>
<linearGradient id="paint0_linear_2121_7937" x1="51.3274" y1="49.3013" x2="85.0111" y2="116.835" gradientUnits="userSpaceOnUse">
<stop stop-color="#FF9900"/>
<stop offset="1" stop-color="#B76E00"/>
</linearGradient>
<linearGradient id="paint1_linear_2121_7937" x1="37.4018" y1="57.0748" x2="-6.49185" y2="-5.71465" gradientUnits="userSpaceOnUse">
<stop stop-color="#FF9900"/>
<stop offset="1" stop-color="#FF9900" stop-opacity="0"/>
<stop offset="1" stop-color="#FFD600"/>
</linearGradient>
</defs>
</svg>
